# xmcd
#
# Track frame offsets:
#	150
#	12338
#	24320
#	41375
#	54310
#	64999
#	76660
#	96063
#	107078
#	120177
#	134755
#	151802
#	162063
#	175993
#	187671
#	197989
#	209327
#	223834
#
# Disc length: 3201 seconds
#
# Revision: 1
# Processed by: cddbd v1.5.2PL0 Copyright (c) Steve Scherf et al.
# Submitted via: audiograbber 1.83.01
#
DISCID=e70c7f12
DTITLE=Otis Redding - (Sittin' On) The Dock Of The Bay
DYEAR=1900
DGENRE=
TTITLE0=(Sitting on) the dock of the bay
TTITLE1=Fa-Fa-Fa-Fa-Fa (Sad song)
TTITLE2=Respect
TTITLE3=Tramp
TTITLE4=Pain in my heart
TTITLE5=Mr. Pitiful
TTITLE6=A change is gonna come
TTITLE7=That's how strong my love is
TTITLE8=My girl
TTITLE9=I've been loving you too long
TTITLE10=Try a little tenderness
TTITLE11=Love man
TTITLE12=My lover's prayer
TTITLE13=I can't turn you loose
TTITLE14=Hard to handle
TTITLE15=These arms of mine
TTITLE16=Shake
TTITLE17=(I can't get not ) satisfaction
EXTD=
EXTT0=
EXTT1=
EXTT2=
EXTT3=
EXTT4=
EXTT5=
EXTT6=
EXTT7=
EXTT8=
EXTT9=
EXTT10=
EXTT11=
EXTT12=
EXTT13=
EXTT14=
EXTT15=
EXTT16=
EXTT17=
PLAYORDER=
